HIERARCHY
ROOT Hips
{
	OFFSET 0.000000 97.167313 0.000000
	CHANNELS 6 Xposition Yposition Zposition Xrotation Yrotation Zrotation
	JOINT Spine
	{
		OFFSET 0.000000 13.784798 0.064400
		CHANNELS 3 Xrotation Yrotation Zrotation
		JOINT Spine1
		{
			OFFSET 0.000000 12.037903 0.404700
			CHANNELS 3 Xrotation Yrotation Zrotation
			JOINT Spine2
			{
				OFFSET 0.000000 17.795601 0.420200
				CHANNELS 3 Xrotation Yrotation Zrotation
				JOINT Neck
				{
					OFFSET 0.000000 39.131302 11.954600
					CHANNELS 3 Xrotation Yrotation Zrotation
					JOINT Head
					{
						OFFSET 0.000000 14.456192 15.627699
						CHANNELS 3 Xrotation Yrotation Zrotation
						JOINT HeadTop_End
						{
							OFFSET 0.000000 15.703506 7.603401
							CHANNELS 3 Xrotation Yrotation Zrotation
							End Site
							{
								OFFSET 0.000000 17.447403 0.000000
							}
						}
					}
				}
				JOINT LeftShoulder
				{
					OFFSET 17.399500 24.608795 1.168800
					CHANNELS 3 Xrotation Yrotation Zrotation
					JOINT LeftArm
					{
						OFFSET 18.980635 5.765305 1.818600
						CHANNELS 3 Xrotation Yrotation Zrotation
						JOINT LeftForeArm
						{
							OFFSET 49.290169 0.000000 0.000000
							CHANNELS 3 Xrotation Yrotation Zrotation
							JOINT LeftHand
							{
								OFFSET 31.562012 0.000000 0.000000
								CHANNELS 3 Xrotation Yrotation Zrotation
								JOINT LeftHandThumb1
								{
									OFFSET 6.133995 -4.388519 7.076070
									CHANNELS 3 Xrotation Yrotation Zrotation
									JOINT LeftHandThumb2
									{
										OFFSET 6.037666 -3.485840 3.485847
										CHANNELS 3 Xrotation Yrotation Zrotation
										JOINT LeftHandThumb3
										{
											OFFSET 6.496506 -3.750763 3.750761
											CHANNELS 3 Xrotation Yrotation Zrotation
											JOINT LeftHandThumb4
											{
												OFFSET 5.616882 -3.242905 3.242910
												CHANNELS 3 Xrotation Yrotation Zrotation
												End Site
												{
													OFFSET -1.254608 7.132141 0.375429
												}
											}
										}
									}
								}
								JOINT LeftHandPinky1
								{
									OFFSET 18.920792 -0.453171 -11.426712
									CHANNELS 3 Xrotation Yrotation Zrotation
									JOINT LeftHandPinky2
									{
										OFFSET 4.919586 0.000000 0.000000
										CHANNELS 3 Xrotation Yrotation Zrotation
										JOINT LeftHandPinky3
										{
											OFFSET 5.233047 0.000000 0.000000
											CHANNELS 3 Xrotation Yrotation Zrotation
											JOINT LeftHandPinky4
											{
												OFFSET 5.571716 0.000000 0.000000
												CHANNELS 3 Xrotation Yrotation Zrotation
												End Site
												{
													OFFSET -3.459808 4.342407 -0.466164
												}
											}
										}
									}
								}
								JOINT LeftHandRing1
								{
									OFFSET 22.726120 -0.094986 -6.500475
									CHANNELS 3 Xrotation Yrotation Zrotation
									JOINT LeftHandRing2
									{
										OFFSET 6.408615 0.000000 0.000000
										CHANNELS 3 Xrotation Yrotation Zrotation
										JOINT LeftHandRing3
										{
											OFFSET 6.150223 0.000000 0.000000
											CHANNELS 3 Xrotation Yrotation Zrotation
											JOINT LeftHandRing4
											{
												OFFSET 6.145386 0.000000 0.000000
												CHANNELS 3 Xrotation Yrotation Zrotation
												End Site
												{
													OFFSET -3.671402 4.923981 -0.202372
												}
											}
										}
									}
								}
								JOINT LeftHandMiddle1
								{
									OFFSET 23.373947 0.000000 0.000001
									CHANNELS 3 Xrotation Yrotation Zrotation
									JOINT LeftHandMiddle2
									{
										OFFSET 6.996567 0.000000 0.000000
										CHANNELS 3 Xrotation Yrotation Zrotation
										JOINT LeftHandMiddle3
										{
											OFFSET 7.015945 0.000000 0.000000
											CHANNELS 3 Xrotation Yrotation Zrotation
											JOINT LeftHandMiddle4
											{
												OFFSET 7.721573 0.000000 0.000000
												CHANNELS 3 Xrotation Yrotation Zrotation
												End Site
												{
													OFFSET -4.651108 6.158463 0.251582
												}
											}
										}
									}
								}
								JOINT LeftHandIndex1
								{
									OFFSET 21.310577 -0.490082 6.209344
									CHANNELS 3 Xrotation Yrotation Zrotation
									JOINT LeftHandIndex2
									{
										OFFSET 7.536453 0.000000 0.000000
										CHANNELS 3 Xrotation Yrotation Zrotation
										JOINT LeftHandIndex3
										{
											OFFSET 7.512344 0.000000 0.000000
											CHANNELS 3 Xrotation Yrotation Zrotation
											JOINT LeftHandIndex4
											{
												OFFSET 10.212402 0.000000 0.000001
												CHANNELS 3 Xrotation Yrotation Zrotation
												End Site
												{
													OFFSET -5.180801 8.690506 1.388433
												}
											}
										}
									}
								}
							}
						}
					}
				}
				JOINT RightShoulder
				{
					OFFSET -17.399500 24.608795 1.168800
					CHANNELS 3 Xrotation Yrotation Zrotation
					JOINT RightArm
					{
						OFFSET -18.980635 5.765305 1.818600
						CHANNELS 3 Xrotation Yrotation Zrotation
						JOINT RightForeArm
						{
							OFFSET -49.290169 0.000000 0.000000
							CHANNELS 3 Xrotation Yrotation Zrotation
							JOINT RightHand
							{
								OFFSET -31.562012 0.000000 0.000000
								CHANNELS 3 Xrotation Yrotation Zrotation
								JOINT RightHandThumb1
								{
									OFFSET -6.133995 -4.388519 7.076070
									CHANNELS 3 Xrotation Yrotation Zrotation
									JOINT RightHandThumb2
									{
										OFFSET -6.037666 -3.485840 3.485847
										CHANNELS 3 Xrotation Yrotation Zrotation
										JOINT RightHandThumb3
										{
											OFFSET -6.496506 -3.750763 3.750761
											CHANNELS 3 Xrotation Yrotation Zrotation
											JOINT RightHandThumb4
											{
												OFFSET -5.616882 -3.242905 3.242910
												CHANNELS 3 Xrotation Yrotation Zrotation
												End Site
												{
													OFFSET 1.254608 7.132141 0.375429
												}
											}
										}
									}
								}
								JOINT RightHandIndex1
								{
									OFFSET -21.310577 -0.490082 6.209344
									CHANNELS 3 Xrotation Yrotation Zrotation
									JOINT RightHandIndex2
									{
										OFFSET -7.536453 0.000000 0.000000
										CHANNELS 3 Xrotation Yrotation Zrotation
										JOINT RightHandIndex3
										{
											OFFSET -7.512344 0.000000 0.000000
											CHANNELS 3 Xrotation Yrotation Zrotation
											JOINT RightHandIndex4
											{
												OFFSET -10.212402 0.000000 0.000001
												CHANNELS 3 Xrotation Yrotation Zrotation
												End Site
												{
													OFFSET 5.180801 8.690506 1.388433
												}
											}
										}
									}
								}
								JOINT RightHandMiddle1
								{
									OFFSET -23.373947 0.000000 0.000001
									CHANNELS 3 Xrotation Yrotation Zrotation
									JOINT RightHandMiddle2
									{
										OFFSET -6.996567 0.000000 0.000000
										CHANNELS 3 Xrotation Yrotation Zrotation
										JOINT RightHandMiddle3
										{
											OFFSET -7.015945 0.000000 0.000000
											CHANNELS 3 Xrotation Yrotation Zrotation
											JOINT RightHandMiddle4
											{
												OFFSET -7.721573 0.000000 0.000000
												CHANNELS 3 Xrotation Yrotation Zrotation
												End Site
												{
													OFFSET 4.651108 6.158463 0.251582
												}
											}
										}
									}
								}
								JOINT RightHandRing1
								{
									OFFSET -22.726120 -0.094986 -6.500475
									CHANNELS 3 Xrotation Yrotation Zrotation
									JOINT RightHandRing2
									{
										OFFSET -6.408615 0.000000 0.000000
										CHANNELS 3 Xrotation Yrotation Zrotation
										JOINT RightHandRing3
										{
											OFFSET -6.150223 0.000000 0.000000
											CHANNELS 3 Xrotation Yrotation Zrotation
											JOINT RightHandRing4
											{
												OFFSET -6.145386 0.000000 0.000000
												CHANNELS 3 Xrotation Yrotation Zrotation
												End Site
												{
													OFFSET 3.671402 4.923981 -0.202372
												}
											}
										}
									}
								}
								JOINT RightHandPinky1
								{
									OFFSET -18.920792 -0.453171 -11.426712
									CHANNELS 3 Xrotation Yrotation Zrotation
									JOINT RightHandPinky2
									{
										OFFSET -4.919586 0.000000 0.000000
										CHANNELS 3 Xrotation Yrotation Zrotation
										JOINT RightHandPinky3
										{
											OFFSET -5.233047 0.000000 0.000000
											CHANNELS 3 Xrotation Yrotation Zrotation
											JOINT RightHandPinky4
											{
												OFFSET -5.571716 0.000000 0.000000
												CHANNELS 3 Xrotation Yrotation Zrotation
												End Site
												{
													OFFSET 3.459808 4.342407 -0.466164
												}
											}
										}
									}
								}
							}
						}
					}
				}
			}
		}
	}
	JOINT LeftUpLeg
	{
		OFFSET 19.899099 -7.885101 -3.429500
		CHANNELS 3 Xrotation Yrotation Zrotation
		JOINT LeftLeg
		{
			OFFSET 1.745560 -36.997807 10.304700
			CHANNELS 3 Xrotation Yrotation Zrotation
			JOINT LeftFoot
			{
				OFFSET -1.745558 -29.803308 -13.615400
				CHANNELS 3 Xrotation Yrotation Zrotation
				JOINT LeftToeBase
				{
					OFFSET 1.181900 -18.539904 15.226099
					CHANNELS 3 Xrotation Yrotation Zrotation
					JOINT LeftToe_End
					{
						OFFSET -0.863701 1.402801 16.534700
						CHANNELS 3 Xrotation Yrotation Zrotation
						End Site
						{
							OFFSET 0.000000 16.616566 0.000000
						}
					}
				}
			}
		}
	}
	JOINT RightUpLeg
	{
		OFFSET -19.899099 -7.885101 -3.429500
		CHANNELS 3 Xrotation Yrotation Zrotation
		JOINT RightLeg
		{
			OFFSET -1.745560 -36.997807 10.304700
			CHANNELS 3 Xrotation Yrotation Zrotation
			JOINT RightFoot
			{
				OFFSET 1.745558 -29.803308 -13.615400
				CHANNELS 3 Xrotation Yrotation Zrotation
				JOINT RightToeBase
				{
					OFFSET -1.181900 -18.539904 15.226099
					CHANNELS 3 Xrotation Yrotation Zrotation
					JOINT RightToe_End
					{
						OFFSET 0.863701 1.402801 16.534700
						CHANNELS 3 Xrotation Yrotation Zrotation
						End Site
						{
							OFFSET 0.000000 16.616566 0.000000
						}
					}
				}
			}
		}
	}
}
MOTION
Frames: 4
Frame Time: 0.033333
-3.247865 85.339279 1.470304 -10.822832 -54.596147 -6.686111 5.270894 0.476946 0.305413 4.893948 1.120452 0.299615 8.444752 1.036568 0.033096 2.537742 5.573015 -0.185105 2.372881 37.187409 -7.340050 -0.000000 -0.000001 -0.000001 9.150661 -24.591773 -2.246819 -26.081549 8.195812 -60.619322 -91.272993 13.098935 -86.099889 -27.755549 -7.618276 -6.281127 0.699118 9.503387 -2.418106 5.975214 12.647533 1.348334 -23.873519 -17.664213 1.604942 -0.000001 0.000001 -0.000001 -7.938270 1.609086 -6.495667 2.210585 4.583659 -51.475185 0.883839 3.096062 -31.858099 -0.000000 -0.000001 -0.000002 1.254222 -0.073730 -17.945779 3.754108 5.463607 -68.965274 5.298500 9.638348 -33.747032 -0.000001 0.000000 0.000008 10.058168 -1.800566 -20.644701 1.774257 4.200495 -45.782082 1.632169 4.057814 -43.809431 0.000003 0.000000 0.000008 9.479708 -1.289792 -20.785538 0.709481 2.796440 -28.467098 0.714017 2.804765 -28.559751 -0.000001 0.000001 -0.000001 10.412283 20.306183 -1.365547 3.438892 33.624649 47.881580 68.317751 116.119104 -81.886974 -10.140935 21.398535 14.287658 13.942452 -4.273677 -5.300383 7.113188 -20.767504 -2.619488 -3.463362 -24.899716 -18.660452 -0.000001 0.000003 0.000003 0.357757 -5.832692 5.175846 0.094355 -0.933617 11.539844 0.777631 -2.578463 33.559933 -0.000002 -0.000001 -0.000001 3.764071 -12.080518 1.143783 5.714269 -4.535872 103.133473 3.160479 -4.410600 71.234980 -0.000000 -0.000000 -0.000006 -12.155624 -12.623918 9.228339 6.566888 -4.248429 114.232271 3.755142 -4.569169 78.819727 -0.000000 -0.000000 -0.000002 -17.635753 -10.496834 3.325438 4.993661 -4.645014 94.147929 3.647339 -4.546606 77.463423 0.000002 0.000003 -0.000001 -21.074077 11.512805 22.274384 30.730049 9.919619 -2.171758 1.521156 3.060961 -14.596077 -0.208562 0.099038 0.223846 -0.000000 -0.000003 0.000000 -15.076912 -18.845402 -25.909105 36.746636 0.381662 -1.211988 -16.246595 -1.840297 14.475109 1.077622 2.170988 2.153210 -0.000000 0.000001 -0.000000 
-3.244267 85.325958 1.468464 -10.885091 -54.589283 -6.736356 5.282440 0.475402 0.307975 4.877211 1.115483 0.287815 8.388921 1.017231 0.053976 2.552191 5.573242 -0.164137 2.378513 37.231515 -7.257568 -0.000000 0.000002 -0.000001 9.123366 -24.632217 -2.116135 -25.939289 8.266070 -60.674790 -91.286400 13.221459 -86.076441 -27.742039 -7.667589 -6.331467 0.699115 9.503392 -2.418105 5.975212 12.647531 1.348334 -23.873516 -17.664215 1.604939 -0.000001 0.000001 -0.000001 -7.938270 1.609088 -6.495667 2.210585 4.583652 -51.475188 0.883835 3.096060 -31.858099 -0.000000 -0.000003 -0.000003 1.254222 -0.073730 -17.945779 3.754106 5.463600 -68.965281 5.298501 9.638348 -33.747026 -0.000000 -0.000001 -0.000000 10.058166 -1.800566 -20.644701 1.774258 4.200496 -45.782085 1.632173 4.057813 -43.809431 -0.000003 -0.000002 0.000004 9.479707 -1.289796 -20.785543 0.709480 2.796439 -28.467093 0.714015 2.804766 -28.559753 0.000003 -0.000000 0.000001 10.368927 20.442628 -1.528763 3.562251 33.605938 47.904430 68.311454 116.134267 -81.877193 -10.216379 21.460687 14.151518 13.942456 -4.273675 -5.300383 7.113190 -20.767508 -2.619489 -3.463364 -24.899712 -18.660454 0.000000 0.000000 -0.000002 0.357759 -5.832692 5.175848 0.094355 -0.933619 11.539841 0.777633 -2.578464 33.559933 -0.000001 -0.000001 -0.000001 3.764072 -12.080517 1.143786 5.714269 -4.535874 103.133466 3.160479 -4.410601 71.234987 -0.000000 -0.000000 -0.000004 -12.155624 -12.623916 9.228337 6.566889 -4.248428 114.232277 3.755145 -4.569168 78.819734 -0.000000 0.000001 -0.000005 -17.635753 -10.496838 3.325442 4.993661 -4.645012 94.147935 3.647339 -4.546609 77.463423 -0.000000 0.000001 0.000002 -21.059864 11.510772 22.281281 30.769913 9.908241 -2.171602 1.501945 3.062125 -14.598466 -0.208562 0.099040 0.223846 -0.000000 0.000001 -0.000000 -15.056367 -18.844973 -25.920431 36.783106 0.390108 -1.212278 -16.268385 -1.843408 14.476178 1.077622 2.170988 2.153211 0.000000 0.000000 -0.000000 
-3.239461 85.307991 1.465783 -10.951653 -54.582337 -6.790258 5.299994 0.473008 0.310580 4.861792 1.109368 0.278260 8.337151 0.998050 0.073491 2.565761 5.571970 -0.146324 2.352975 37.275846 -7.155927 0.000001 0.000001 -0.000001 9.097495 -24.669668 -1.992398 -25.810696 8.334614 -60.725265 -91.299200 13.335544 -86.054175 -27.734851 -7.712446 -6.379772 0.699116 9.503387 -2.418104 5.975213 12.647530 1.348334 -23.873521 -17.664216 1.604942 0.000002 0.000000 0.000001 -7.938270 1.609086 -6.495667 2.210586 4.583656 -51.475188 0.883834 3.096060 -31.858099 -0.000000 -0.000004 0.000000 1.254219 -0.073728 -17.945777 3.754109 5.463605 -68.965267 5.298502 9.638347 -33.747036 -0.000003 0.000000 0.000005 10.058166 -1.800570 -20.644701 1.774258 4.200497 -45.782082 1.632167 4.057814 -43.809434 0.000001 0.000000 0.000004 9.479708 -1.289798 -20.785539 0.709479 2.796442 -28.467091 0.714014 2.804760 -28.559753 -0.000000 0.000001 -0.000001 10.331862 20.543689 -1.684104 3.656484 33.623631 47.923995 68.332539 116.131548 -81.899159 -10.304280 21.515552 14.028519 13.942456 -4.273675 -5.300383 7.113190 -20.767504 -2.619489 -3.463361 -24.899716 -18.660452 -0.000002 0.000005 0.000002 0.357758 -5.832693 5.175845 0.094357 -0.933616 11.539846 0.777633 -2.578462 33.559933 -0.000000 0.000001 -0.000001 3.764070 -12.080517 1.143786 5.714269 -4.535873 103.133473 3.160478 -4.410602 71.234987 0.000000 -0.000000 -0.000001 -12.155627 -12.623916 9.228334 6.566888 -4.248426 114.232277 3.755144 -4.569168 78.819727 0.000001 -0.000000 -0.000003 -17.635753 -10.496839 3.325440 4.993661 -4.645013 94.147929 3.647340 -4.546602 77.463423 0.000001 -0.000000 0.000002 -21.050348 11.506346 22.290587 30.822287 9.895481 -2.171379 1.477865 3.063848 -14.602296 -0.208562 0.099040 0.223846 -0.000000 0.000001 0.000000 -15.040135 -18.841936 -25.933795 36.832410 0.399409 -1.213268 -16.296112 -1.846983 14.476661 1.077622 2.170988 2.153211 0.000000 -0.000000 0.000000 
-3.233300 85.288582 1.462091 -11.023323 -54.576316 -6.848702 5.323414 0.470479 0.313574 4.849424 1.102984 0.271582 8.291599 0.979802 0.090707 2.579724 5.572896 -0.132444 2.292144 37.315683 -7.034607 0.000001 0.000000 -0.000000 9.073467 -24.709290 -1.875027 -25.696601 8.404325 -60.766745 -91.309384 13.423045 -86.035904 -27.753543 -7.754099 -6.426493 0.699117 9.503390 -2.418104 5.975212 12.647528 1.348334 -23.873523 -17.664218 1.604940 -0.000000 -0.000000 -0.000001 -7.938267 1.609095 -6.495666 2.210586 4.583661 -51.475188 0.883832 3.096066 -31.858099 0.000002 0.000000 -0.000002 1.254222 -0.073728 -17.945779 3.754108 5.463605 -68.965274 5.298502 9.638348 -33.747029 0.000002 0.000002 0.000002 10.058168 -1.800567 -20.644699 1.774258 4.200494 -45.782085 1.632170 4.057811 -43.809431 -0.000000 0.000000 0.000008 9.479710 -1.289794 -20.785539 0.709482 2.796442 -28.467098 0.714012 2.804767 -28.559755 0.000002 0.000001 0.000001 10.303718 20.627858 -1.842805 3.722400 33.657950 47.948816 68.371778 116.134212 -81.940898 -10.379498 21.567830 13.913036 13.942457 -4.273673 -5.300384 7.113192 -20.767508 -2.619490 -3.463362 -24.899716 -18.660454 -0.000003 0.000003 0.000001 0.357758 -5.832691 5.175846 0.094357 -0.933617 11.539845 0.777631 -2.578465 33.559933 0.000000 0.000000 0.000004 3.764071 -12.080516 1.143779 5.714271 -4.535872 103.133466 3.160479 -4.410601 71.234987 -0.000001 0.000000 -0.000004 -12.155625 -12.623914 9.228337 6.566889 -4.248428 114.232277 3.755142 -4.569168 78.819734 0.000000 -0.000001 -0.000002 -17.635755 -10.496835 3.325438 4.993661 -4.645016 94.147935 3.647339 -4.546606 77.463423 -0.000001 -0.000001 0.000004 -21.040613 11.501367 22.301321 30.878630 9.882986 -2.171198 1.452804 3.065820 -14.606646 -0.208562 0.099038 0.223846 -0.000000 -0.000001 0.000000 -15.024543 -18.838092 -25.947909 36.885101 0.410989 -1.213924 -16.324229 -1.850885 14.476769 1.077622 2.170987 2.153210 -0.000000 0.000001 -0.000000 
